<svg xmlns="http://www.w3.org/2000/svg" width="1920" height="1080" viewBox="0 0 1920 1080">
  <defs>
    <linearGradient id="bg" x1="0" y1="0" x2="0" y2="1">
      <stop offset="0%" stop-color="#f0dcc0"/>
      <stop offset="100%" stop-color="#dcc4a3"/>
    </linearGradient>
  </defs>
  <rect width="1920" height="1080" fill="url(#bg)"/>

  <!-- Triptych panels -->
  <rect x="70" y="150" width="560" height="820" rx="20" fill="#efe3d0"/>
  <rect x="680" y="150" width="560" height="820" rx="20" fill="#f3ecde"/>
  <rect x="1290" y="150" width="560" height="820" rx="20" fill="#ece5d8"/>

  <!-- Beauty pass -->
  <g>
    <rect x="250" y="320" width="190" height="460" fill="#bfa78b"/>
    <rect x="440" y="350" width="60" height="460" fill="#ac9476"/>
    <rect x="270" y="340" width="145" height="400" fill="#85a0a9"/>
    <ellipse cx="285" cy="820" rx="160" ry="55" fill="#7f9568" opacity="0.7"/>
  </g>

  <!-- Topology pass (clean quad wireframe) -->
  <g stroke="#5f5f5f" stroke-width="2" fill="none">
    <rect x="860" y="320" width="190" height="460"/>
    <rect x="1050" y="350" width="60" height="460"/>
    <line x1="860" y1="380" x2="1050" y2="380"/>
    <line x1="860" y1="440" x2="1050" y2="440"/>
    <line x1="860" y1="500" x2="1050" y2="500"/>
    <line x1="860" y1="560" x2="1050" y2="560"/>
    <line x1="860" y1="620" x2="1050" y2="620"/>
    <line x1="860" y1="680" x2="1050" y2="680"/>
    <line x1="920" y1="320" x2="920" y2="780"/>
    <line x1="980" y1="320" x2="980" y2="780"/>
    <line x1="1040" y1="320" x2="1040" y2="780"/>
  </g>

  <!-- Fabrication pass -->
  <g>
    <rect x="1470" y="320" width="190" height="460" fill="#d4d0ca"/>
    <rect x="1660" y="350" width="60" height="460" fill="#c8c4be"/>
    <ellipse cx="1570" cy="840" rx="180" ry="40" fill="#c0bbb3"/>

    <!-- Nozzle overlay -->
    <polygon points="1680,230 1725,300 1635,300" fill="#8c8a86"/>
    <line x1="1680" y1="300" x2="1600" y2="420" stroke="#8c8a86" stroke-width="8"/>
    <circle cx="1600" cy="420" r="8" fill="#8c8a86"/>
  </g>

  <text x="70" y="96" font-family="Arial, sans-serif" font-size="44" fill="#3e3528" font-weight="700">Frame 3 · Feasibility Mic-Drop (Technical Triptych)</text>
  <text x="230" y="920" font-family="Arial, sans-serif" font-size="28" fill="#5d513e" font-weight="700">Beauty Pass</text>
  <text x="820" y="920" font-family="Arial, sans-serif" font-size="28" fill="#5d513e" font-weight="700">Topology Pass</text>
  <text x="1440" y="920" font-family="Arial, sans-serif" font-size="28" fill="#5d513e" font-weight="700">Fabrication Pass</text>
</svg>
