<svg xmlns="http://www.w3.org/2000/svg" width="1080" height="1920" viewBox="0 0 1080 1920">
  <defs>
    <linearGradient id="leftBg" x1="0" y1="0" x2="0" y2="1"><stop offset="0%" stop-color="#f0d2a1"/><stop offset="100%" stop-color="#d2b388"/></linearGradient>
    <linearGradient id="rightBg" x1="0" y1="0" x2="0" y2="1"><stop offset="0%" stop-color="#f8f4eb"/><stop offset="100%" stop-color="#ece6d9"/></linearGradient>
    <filter id="glow" x="-20%" y="-20%" width="140%" height="140%"><feGaussianBlur stdDeviation="6" result="blur"/><feMerge><feMergeNode in="blur"/><feMergeNode in="SourceGraphic"/></feMerge></filter>
  </defs>
  <rect width="540" height="1920" fill="url(#leftBg)"/><rect x="540" width="540" height="1920" fill="url(#rightBg)"/><line x1="540" y1="0" x2="540" y2="1920" stroke="#bfb39f" stroke-width="6"/>
  <g><rect x="90" y="250" width="300" height="860" fill="#bea98d"/><rect x="390" y="300" width="70" height="760" fill="#ae987a"/><rect x="112" y="280" width="255" height="780" fill="#8ca3ab" opacity="0.85"/><ellipse cx="250" cy="1220" rx="200" ry="70" fill="#779061" opacity="0.7"/></g>
  <g>
    <rect x="640" y="320" width="250" height="760" fill="#f1eadb" stroke="#d9cfbb" stroke-width="3"/><rect x="890" y="360" width="60" height="760" fill="#e8decb" stroke="#d9cfbb" stroke-width="3"/><rect x="670" y="350" width="185" height="700" fill="#f7f2e8"/>
    <path d="M 730 1680 C 740 1540, 750 1450, 780 1330 C 810 1200, 820 1120, 825 1035" fill="none" stroke="#F4D000" stroke-width="22" stroke-linecap="round" filter="url(#glow)"/>
    <circle cx="730" cy="1680" r="20" fill="#F4D000"/><circle cx="825" cy="1035" r="20" fill="#F4D000"/>
    <text x="642" y="1728" font-family="Arial, sans-serif" font-size="24" fill="#736851">Parking</text><text x="842" y="1000" font-family="Arial, sans-serif" font-size="24" fill="#736851">Main Entry</text>
  </g>
  <text x="58" y="86" font-family="Arial, sans-serif" font-size="44" fill="#3e3528" font-weight="700">Frame 2 · Trauma-Informed Pivot</text>
</svg>
